<svg width="114.39513416030779" height="202.75" viewBox="0 0 165.87999725341797 294" class="css-1j8o68f"><defs id="SvgjsDefs3723"><linearGradient id="SvgjsLinearGradient3732"><stop id="SvgjsStop3733" stop-color="#2d388a" offset="0"></stop><stop id="SvgjsStop3734" stop-color="#00aeef" offset="1"></stop></linearGradient></defs><g id="SvgjsG3725" featurekey="symbolFeature-0" transform="matrix(1,0,0,1,30.500000953674316,78.00099754333496)" fill="url(#SvgjsLinearGradient3732)"><g xmlns="http://www.w3.org/2000/svg"><path d="M67.45,38.21c2.386-0.735,4.701-1.243,6.837-1.59c-0.093-3.854-0.606-7.039-0.977-8.869   c-1.529,0.566-3.999,1.585-6.803,3.117c0.465,1.814,0.781,3.701,0.896,5.643C67.438,37.08,67.453,37.646,67.45,38.21z"></path><path d="M76.453,53.136c2.3-4.647,3.571-9.216,4.185-12.318c-8.436,0.364-26.668-1.547-32.941,23.198   c-0.422,1.665-1.195,4.001-1.822,5.779C47.808,69.527,66.508,73.23,76.453,53.136z"></path><path d="M80.278,52.645c-0.294,0.651-0.603,1.306-0.937,1.962c-3.69,7.25-8.723,12.306-15.028,15.132   C82.337,71.826,97.5,60.68,97.5,60.68S90.425,55.336,80.278,52.645z"></path><path d="M49.97,49.317c3.307-3.979,7.621-7.131,12.923-9.428c0.425-0.184,0.849-0.358,1.271-0.524   c0.051-0.875,0.057-1.757,0.005-2.646c-0.687-11.733-9.869-21.63-13.045-24.72c-2.019,2.018-6.491,6.902-9.557,13.308   c-2.413,5.043-3.47,9.912-3.183,14.584C43.182,42.243,47.052,45.395,49.97,49.317z"></path><path d="M22.501,53.768c-0.073-0.14-0.141-0.277-0.211-0.416c-8.953,2.861-8.482,2.56-14.79,7.328c0,0,14.662,10.778,32.285,9.155   C32.494,67.09,26.692,61.702,22.501,53.768z"></path><path d="M21.002,40.168c0.672,3.045,1.968,7.545,4.365,12.084c4.217,7.985,10.187,13.117,17.759,15.273   c0.175-0.484,1.199-8.642,4.928-14.881C42.058,41.77,27.632,40.313,21.002,40.168z"></path><path d="M36.04,31.073c-2.962-1.652-5.584-2.733-7.183-3.324c-0.36,1.796-0.86,4.894-0.97,8.638   c2.323,0.475,4.782,1.146,7.246,2.09C35.123,36.046,35.42,33.574,36.04,31.073z"></path></g></g><g id="SvgjsG3726" featurekey="nameLeftFeature-0" transform="matrix(2.5714285714285716,0,0,2.5714285714285716,-3.0857144083295553,152.57142857142856)" fill="#137dc5"><path d="M10.46 20 l-6.36 -6.98 l-2.32 2.44 l0 4.54 l-0.58 0 l0 -14 l0.58 0 l0 8.68 l8.24 -8.68 l0.76 0 l-6.3 6.64 l6.72 7.36 l-0.74 0 z M24.12 20 l-1.78 -3.98 l-8.04 0 l-1.78 3.98 l-0.62 0 l6.26 -14 l0.3 0 l6.28 14 l-0.62 0 z M14.540000000000003 15.46 l7.56 0 l-3.78 -8.46 z M26.92 6 l0 14 l-0.58 0 l0 -14 l0.58 0 z"></path></g><g id="SvgjsG3727" featurekey="nameRightFeature-0" transform="matrix(2.5714285714285716,0,0,2.5714285714285716,71.20000049046108,152.57142857142856)" fill="#137dc5"><path d="M11.82 6 l-6.48 11.5 l6.56 0 l0 2.5 l-11.2 0 l6.48 -11.5 l-6.12 0 l0 -2.5 l10.76 0 z M16.72 17.32 l5.92 0 l0 2.68 l-6.32 0 l-2.52 0 l0 -14 l2.92 0 l5.74 0 l0 2.68 l-5.74 0 l0 2.96 l4.34 0 l0 2.64 l-4.34 0 l0 3.04 z M33.9 6 l2.92 0 l0 14 l-2.22 0 l-6.94 -8.68 l0 8.68 l-2.92 0 l0 -14 l2.26 0 l6.9 8.7 l0 -8.7 z"></path></g></svg>